<svg width="19" height="19" viewBox="0 0 19 19" fill="none" xmlns="http://www.w3.org/2000/svg">
<g clipPath="url(#clip0_961_114)">
<path d="M9.37161 8.7149C10.5628 8.7149 11.5941 8.28767 12.4371 7.44475C13.2797 6.60196 13.7071 5.57076 13.7071 4.37943C13.7071 3.18851 13.2799 2.15717 12.4369 1.3141C11.594 0.471451 10.5627 0.04422 9.37161 0.04422C8.18028 0.04422 7.14908 0.471451 6.30629 1.31424C5.4635 2.15703 5.03613 3.18837 5.03613 4.37943C5.03613 5.57076 5.4635 6.6021 6.30629 7.44489C7.14935 8.28754 8.18069 8.7149 9.37161 8.7149ZM7.05226 2.06007C7.69894 1.41339 8.45755 1.09904 9.37161 1.09904C10.2855 1.09904 11.0443 1.41339 11.6911 2.06007C12.3378 2.70689 12.6523 3.46564 12.6523 4.37943C12.6523 5.29349 12.3378 6.05209 11.6911 6.69891C11.0443 7.34573 10.2855 7.66008 9.37161 7.66008C8.45782 7.66008 7.69922 7.3456 7.05226 6.69891C6.40544 6.05223 6.09096 5.29349 6.09096 4.37943C6.09096 3.46564 6.40544 2.70689 7.05226 2.06007Z" fill="white"/>
<path d="M16.9577 13.8854C16.9333 13.5346 16.8842 13.152 16.8118 12.748C16.7388 12.341 16.6447 11.9562 16.5321 11.6045C16.4156 11.241 16.2576 10.882 16.0619 10.538C15.859 10.1809 15.6206 9.87 15.3531 9.61415C15.0734 9.3465 14.7309 9.1313 14.3348 8.97433C13.9401 8.81819 13.5027 8.73909 13.0349 8.73909C12.8511 8.73909 12.6734 8.81448 12.3302 9.03792C12.119 9.17566 11.8719 9.33496 11.5962 9.51115C11.3604 9.66139 11.041 9.80215 10.6464 9.9296C10.2615 10.0542 9.87065 10.1173 9.48476 10.1173C9.09914 10.1173 8.7083 10.0542 8.32309 9.9296C7.92896 9.80229 7.60939 9.66153 7.37401 9.51129C7.10086 9.33675 6.85367 9.17744 6.6393 9.03778C6.29639 8.81435 6.11868 8.73895 5.93494 8.73895C5.46692 8.73895 5.02966 8.81819 4.63512 8.97447C4.23933 9.13116 3.8967 9.34636 3.61668 9.61429C3.34917 9.87027 3.11076 10.181 2.90807 10.538C2.71265 10.882 2.55444 11.2408 2.43799 11.6046C2.32552 11.9563 2.23145 12.341 2.15839 12.748C2.08588 13.1515 2.03685 13.5342 2.01254 13.8858C1.98865 14.2295 1.97656 14.5872 1.97656 14.9487C1.97656 15.8883 2.27525 16.649 2.86426 17.21C3.44598 17.7635 4.21558 18.0442 5.15175 18.0442H13.8189C14.7548 18.0442 15.5244 17.7635 16.1062 17.21C16.6954 16.6494 16.994 15.8884 16.994 14.9486C16.9939 14.5859 16.9817 14.2281 16.9577 13.8854ZM15.3789 16.4457C14.9945 16.8116 14.4842 16.9894 13.8187 16.9894H5.15175C4.48611 16.9894 3.9758 16.8116 3.59155 16.4459C3.21458 16.087 3.03139 15.5972 3.03139 14.9487C3.03139 14.6114 3.04251 14.2784 3.06476 13.9587C3.08646 13.645 3.13081 13.3005 3.19659 12.9344C3.26155 12.5728 3.34422 12.2334 3.44255 11.9262C3.5369 11.6317 3.66557 11.34 3.82515 11.059C3.97745 10.7912 4.15268 10.5614 4.34604 10.3763C4.5269 10.2032 4.75487 10.0614 5.02348 9.95514C5.27191 9.85681 5.5511 9.80298 5.85419 9.79488C5.89113 9.81451 5.95691 9.85201 6.06348 9.92149C6.28032 10.0628 6.53026 10.224 6.80656 10.4005C7.11803 10.5991 7.5193 10.7784 7.99872 10.9332C8.48885 11.0917 8.98872 11.1721 9.48489 11.1721C9.98106 11.1721 10.4811 11.0917 10.9709 10.9333C11.4508 10.7783 11.8519 10.5991 12.1638 10.4002C12.4465 10.2195 12.6895 10.0629 12.9063 9.92149C13.0129 9.85214 13.0787 9.81451 13.1156 9.79488C13.4188 9.80298 13.698 9.85681 13.9466 9.95514C14.2151 10.0614 14.443 10.2033 14.6239 10.3763C14.8172 10.5613 14.9925 10.7911 15.1448 11.0591C15.3045 11.34 15.4333 11.6318 15.5275 11.9261C15.626 12.2337 15.7088 12.5729 15.7736 12.9342C15.8392 13.301 15.8837 13.6457 15.9054 13.9588V13.9591C15.9278 14.2776 15.9391 14.6105 15.9392 14.9487C15.9391 15.5973 15.7559 16.087 15.3789 16.4457Z" fill="white"/>
</g>
<defs>
<clipPath id="clip0_961_114">
<rect width="18" height="18" fill="white" transform="translate(0.5 0.0442505)"/>
</clipPath>
</defs>
</svg>
