<svg width="21" height="21" viewBox="0 0 21 21" fill="none" xmlns="http://www.w3.org/2000/svg">
<g clipPath="url(#clip0_937_683)">
<path d="M14.678 4.70971C14.678 2.40432 12.8051 0.528854 10.5032 0.528854C8.19785 0.528854 6.32227 2.40432 6.32227 4.70971C6.32227 6.37014 7.3273 7.88522 8.84398 8.54385V11.543C8.84398 11.9562 9.17879 12.2923 9.59625 12.2923C9.67988 12.2923 9.74797 12.363 9.74797 12.45V13.11C9.74797 13.197 9.67988 13.2677 9.59027 13.2677C9.17879 13.2677 8.84398 13.6039 8.84398 14.0169V14.5939C8.84398 15.007 9.17879 15.3431 9.59625 15.3431C9.67988 15.3431 9.74797 15.4125 9.74797 15.4978V16.1608C9.74797 16.2478 9.67988 16.3185 9.59027 16.3185C9.17879 16.3185 8.84398 16.6533 8.84398 17.0648V17.9063C8.84398 17.9855 8.87551 18.0614 8.93168 18.1171C9.25594 18.4396 9.41945 18.6033 10.2869 19.4725C10.4023 19.5882 10.59 19.5888 10.7062 19.4737C11.0378 19.1459 11.2364 18.9476 12.0687 18.1172C12.1249 18.0614 12.1564 17.9855 12.1564 17.9064V8.54397C13.673 7.88725 14.678 6.37217 14.678 4.70971ZM11.7548 8.06499C11.6386 8.10854 11.5617 8.21948 11.5617 8.34346V17.7829C11.5315 17.813 10.7118 18.6307 10.4983 18.8425C9.9425 18.2856 9.69418 18.0371 9.43867 17.7828V17.0648C9.43867 16.9812 9.50664 16.9132 9.59621 16.9132C10.0079 16.9132 10.3427 16.5757 10.3427 16.1608V15.4979C10.3427 15.0847 10.0079 14.7484 9.59027 14.7484C9.50664 14.7484 9.43871 14.6791 9.43871 14.5939V14.0169C9.43871 13.9302 9.50535 13.8624 9.59625 13.8624C10.0079 13.8624 10.3427 13.5248 10.3427 13.11V12.45C10.3427 12.0352 10.0079 11.6976 9.59031 11.6976C9.50539 11.6976 9.43875 11.6296 9.43875 11.543V8.34346C9.43875 8.2196 9.36195 8.1087 9.24594 8.06514C7.85297 7.54159 6.91703 6.19315 6.91703 4.70971C6.91703 2.73233 8.52578 1.12358 10.5033 1.12358C12.4774 1.12358 14.0834 2.73233 14.0834 4.70971C14.0833 6.19503 13.1475 7.54342 11.7548 8.06499Z" fill="white"/>
<path d="M10.5002 2.25058C9.94285 2.25058 9.48926 2.70546 9.48926 3.2646C9.48926 3.82199 9.94285 4.27558 10.5002 4.27558C11.0576 4.27558 11.5112 3.82199 11.5112 3.2646C11.5112 2.70546 11.0576 2.25058 10.5002 2.25058ZM10.5002 3.68085C10.2707 3.68085 10.0839 3.49413 10.0839 3.26456C10.0839 3.03343 10.2707 2.84523 10.5002 2.84523C10.7298 2.84523 10.9165 3.03339 10.9165 3.26456C10.9165 3.49413 10.7298 3.68085 10.5002 3.68085Z" fill="white"/>
<path d="M13.3266 10.9656H15.7882C15.9525 10.9656 16.0856 10.8325 16.0856 10.6683V8.66205C16.4245 8.53979 16.6687 8.21889 16.6687 7.83936C16.6687 7.35385 16.2736 6.95877 15.7881 6.95877C15.3026 6.95877 14.9075 7.35385 14.9075 7.83936C14.9075 8.21897 15.1519 8.53994 15.4909 8.66213V10.371H13.3266C13.1624 10.371 13.0293 10.5041 13.0293 10.6683C13.0293 10.8325 13.1624 10.9656 13.3266 10.9656ZM15.7881 7.55346C15.9458 7.55346 16.074 7.68166 16.074 7.83936C16.074 7.99545 15.9458 8.12248 15.7881 8.12248C15.6304 8.12248 15.5022 7.99545 15.5022 7.83936C15.5022 7.68166 15.6304 7.55346 15.7881 7.55346Z" fill="white"/>
<path d="M15.7882 14.6861H13.3266C13.1624 14.6861 13.0293 14.8192 13.0293 14.9834C13.0293 15.1477 13.1624 15.2808 13.3266 15.2808H15.4909V16.9898C15.1519 17.1123 14.9075 17.4344 14.9075 17.8151C14.9075 18.2992 15.3026 18.693 15.7881 18.693C16.2736 18.693 16.6687 18.2992 16.6687 17.8151C16.6687 17.4345 16.4245 17.1125 16.0856 16.9898V14.9834C16.0856 14.8192 15.9525 14.6861 15.7882 14.6861ZM15.7881 18.0983C15.6304 18.0983 15.5022 17.9713 15.5022 17.8152C15.5022 17.6575 15.6304 17.5293 15.7881 17.5293C15.9458 17.5293 16.074 17.6575 16.074 17.8152C16.074 17.9713 15.9458 18.0983 15.7881 18.0983Z" fill="white"/>
<path d="M19.1348 11.9468C18.7546 11.9468 18.4329 12.1905 18.3099 12.5288H13.3266C13.1624 12.5288 13.0293 12.6619 13.0293 12.8261C13.0293 12.9903 13.1624 13.1235 13.3266 13.1235H18.3094C18.4319 13.4615 18.7539 13.7053 19.1348 13.7053C19.6203 13.7053 20.0154 13.3115 20.0154 12.8274C20.0154 12.3419 19.6203 11.9468 19.1348 11.9468ZM19.1348 13.1106C18.9771 13.1106 18.8489 12.9835 18.8489 12.8274C18.8489 12.6698 18.9771 12.5415 19.1348 12.5415C19.2925 12.5415 19.4207 12.6698 19.4207 12.8274C19.4207 12.9835 19.2925 13.1106 19.1348 13.1106Z" fill="white"/>
<path d="M5.21148 10.9656H7.67309C7.8373 10.9656 7.97043 10.8325 7.97043 10.6683C7.97043 10.5041 7.8373 10.371 7.67309 10.371H5.50883V8.66213C5.84785 8.53994 6.09223 8.21897 6.09223 7.83936C6.09223 7.35385 5.69715 6.95877 5.21164 6.95877C4.72613 6.95877 4.33105 7.35385 4.33105 7.83936C4.33105 8.21889 4.57527 8.53979 4.91414 8.66205V10.6683C4.91414 10.8325 5.04727 10.9656 5.21148 10.9656ZM5.21164 7.55346C5.36934 7.55346 5.49754 7.68166 5.49754 7.83936C5.49754 7.99545 5.36934 8.12248 5.21164 8.12248C5.05395 8.12248 4.92574 7.99545 4.92574 7.83936C4.92574 7.68166 5.05395 7.55346 5.21164 7.55346Z" fill="white"/>
<path d="M7.67309 15.2808C7.8373 15.2808 7.97043 15.1477 7.97043 14.9835C7.97043 14.8193 7.8373 14.6861 7.67309 14.6861H5.21148C5.04727 14.6861 4.91414 14.8193 4.91414 14.9835V16.9899C4.57527 17.1126 4.33105 17.4345 4.33105 17.8152C4.33105 18.2993 4.72613 18.693 5.21164 18.693C5.69715 18.693 6.09223 18.2993 6.09223 17.8152C6.09223 17.4344 5.84785 17.1124 5.50883 16.9898V15.2809H7.67309V15.2808ZM5.21164 18.0983C5.05395 18.0983 4.92574 17.9712 4.92574 17.8152C4.92574 17.6575 5.05395 17.5293 5.21164 17.5293C5.36934 17.5293 5.49754 17.6575 5.49754 17.8152C5.49754 17.9712 5.36934 18.0983 5.21164 18.0983Z" fill="white"/>
<path d="M1.86492 13.7053C2.24578 13.7053 2.56785 13.4616 2.69035 13.1235H7.67309C7.8373 13.1235 7.97043 12.9903 7.97043 12.8261C7.97043 12.6619 7.8373 12.5288 7.67309 12.5288H2.68984C2.56688 12.1905 2.24516 11.9468 1.86496 11.9468C1.37945 11.9468 0.984375 12.3419 0.984375 12.8274C0.984336 13.3115 1.37941 13.7053 1.86492 13.7053ZM1.86492 12.5415C2.02262 12.5415 2.15082 12.6698 2.15082 12.8274C2.15082 12.9835 2.02262 13.1106 1.86492 13.1106C1.70723 13.1106 1.57902 12.9835 1.57902 12.8274C1.57906 12.6698 1.70727 12.5415 1.86492 12.5415Z" fill="white"/>
</g>
<defs>
<clipPath id="clip0_937_683">
<rect width="20" height="20" fill="white" transform="translate(0.5 0.0442505)"/>
</clipPath>
</defs>
</svg>
