<svg width="24" height="25" viewBox="0 0 24 25" fill="none" xmlns="http://www.w3.org/2000/svg">
<rect x="0.272727" y="0.377982" width="23.4545" height="23.4545" rx="3.84689" fill="#171719"/>
<rect x="0.272727" y="0.377982" width="23.4545" height="23.4545" rx="3.84689" stroke="#242629" strokeWidth="0.545455"/>
<mask id="mask0_738_719" style="mask-type:luminance" maskUnits="userSpaceOnUse" x="6" y="4" width="12" height="17">
<path d="M17.5921 4.11942H6.40784V20.0911H17.5921V4.11942Z" fill="white"/>
</mask>
<g mask="url(#mask0_738_719)">
<path d="M16.964 11.3407C16.9259 11.3916 16.0875 12.1222 15.7446 12.4111C15.4207 12.683 14.8109 13.2097 14.2965 13.6515C14.0679 13.8553 13.7059 14.1612 13.4582 14.3481C13.2295 14.535 12.9247 14.7729 12.7722 14.9088C12.2006 15.3846 11.4766 15.9622 10.7716 16.489C10.6383 16.5909 10.4668 16.7269 10.3906 16.7948C10.3144 16.8628 10.2381 16.9138 10.2381 16.9138C10.2381 16.9138 10.2763 16.8798 10.5049 16.6249C10.8479 16.2511 12.1625 14.7219 12.9247 13.7534C13.2486 13.3626 13.5725 12.9548 14.2393 12.2072C14.3727 12.0543 14.5633 11.8334 14.6395 11.7484C14.8681 11.4766 15.3063 11.0008 15.4778 10.8479C15.8779 10.4571 15.9732 10.3722 15.9923 10.3722C16.0113 10.3722 16.0875 10.4571 16.1828 10.5421C16.2781 10.627 16.4305 10.7799 16.5448 10.8649C16.6401 10.9499 16.7925 11.0858 16.8687 11.1707L17.0211 11.3237L16.983 11.3576L16.964 11.3407ZM8.86631 17.5084C8.73293 17.6614 8.50429 17.8992 8.38997 18.0352C8.08512 18.392 7.72311 18.7828 7.43731 19.0716C7.30393 19.2076 7.17056 19.3265 7.15151 19.3605L7.09435 19.4115L7.13245 19.3265C7.22772 19.0546 7.55163 18.29 7.85648 17.6614C8.04701 17.2536 8.19944 16.9817 8.69483 15.9792C8.90441 15.5545 9.34264 14.7559 9.64749 14.1782C9.9714 13.6005 10.1048 13.3286 10.2 13.0907C10.4287 12.4621 10.3334 12.1392 9.89519 12.0883C9.62844 12.0543 9.05684 12.0203 8.44713 12.0033C7.78027 12.0033 7.53257 11.9693 7.28488 11.9014C7.1134 11.8674 7.07529 11.8334 7.07529 11.7824C7.07529 11.7145 7.3992 10.9838 7.62784 10.4911C7.70405 10.3212 7.87553 10.0153 7.98985 9.81145C8.19944 9.43765 9.07589 7.92544 9.34264 7.50066C9.3998 7.39871 9.62844 7.00791 9.85708 6.61712C10.4287 5.63163 10.6764 5.24083 10.8669 5.01995C10.9241 4.95198 10.9812 4.88402 11.0003 4.88402C11.1337 4.81605 12.7722 4.76508 13.3248 4.79906C13.5725 4.79906 13.763 4.83305 13.7821 4.85004C13.7821 4.85004 13.744 4.95198 13.6677 5.05393C13.5915 5.15588 13.4772 5.34278 13.4201 5.46172C13.2676 5.69959 12.7341 6.61712 12.6389 6.82101C12.5627 6.95694 12.2006 7.6026 12.0292 7.89145C11.7815 8.28225 11.4957 8.82597 11.4385 8.97889C11.4004 9.06384 11.3623 9.18278 11.3242 9.25074C11.1337 9.64154 11.1718 9.93039 11.4385 10.0493C11.6862 10.1513 13.1533 10.2022 13.8392 10.1513C13.9345 10.1513 14.1441 10.1513 14.3156 10.1343C14.487 10.1343 14.7919 10.1343 14.9824 10.1343C15.173 10.1343 15.3444 10.1343 15.3444 10.1343C15.3444 10.1343 15.0967 10.4401 14.6395 10.9159C14.5251 11.0348 14.2965 11.2897 14.106 11.4936C13.9154 11.6975 13.6487 12.0033 13.4963 12.1732C13.2295 12.4621 12.7341 13.0228 12.4102 13.3796C12.334 13.4815 12.1054 13.7364 11.9148 13.9743C11.7243 14.1952 11.4957 14.484 11.4004 14.586C11.1146 14.9088 10.6383 15.4865 10.3715 15.8093C10.0476 16.2001 9.51412 16.8288 8.84725 17.5594L8.86631 17.5084ZM8.79009 13.2607L8.71388 13.1927C8.67577 13.1587 8.58051 13.0907 8.50429 13.0228C8.42808 12.9718 8.2566 12.8359 8.12323 12.7339L7.89459 12.547H8.21849C8.50429 12.547 8.99968 12.547 9.45696 12.581C9.59033 12.581 9.62844 12.581 9.62844 12.615C9.62844 12.649 9.49507 12.9548 9.3998 13.1417C9.34264 13.2437 9.32359 13.2776 9.30453 13.2776C9.30453 13.2776 9.17116 13.2776 9.03779 13.2776H8.80915L8.79009 13.2607ZM14.3918 5.29181L14.4299 5.24083L14.8681 5.61464C15.0967 5.81853 15.3063 6.00543 15.3063 6.02243C15.3063 6.05641 15.192 6.20933 14.9253 6.63411C14.8109 6.80402 14.6204 7.09287 14.5061 7.27977C14.3918 7.44968 14.2393 7.68756 14.1631 7.8065C14.0869 7.92544 13.9345 8.14632 13.8202 8.33322C13.7059 8.50313 13.5153 8.80897 13.401 8.97889C13.2867 9.16579 13.1533 9.36968 13.1152 9.43765L13.039 9.55659H12.8675C12.7722 9.55659 12.6389 9.55659 12.5627 9.55659C12.4864 9.55659 12.4102 9.55659 12.3721 9.55659C12.334 9.55659 12.2387 9.55659 12.1244 9.55659C11.9911 9.55659 11.9339 9.55659 11.9148 9.5226C11.9148 9.50561 12.0292 9.23375 12.315 8.69004C12.5817 8.16331 12.6198 8.11234 13.3629 6.97393C13.5915 6.61712 14.0298 5.92048 14.2775 5.4957C14.3156 5.42774 14.3727 5.34278 14.3918 5.3088V5.29181ZM17.5165 10.8139C17.4403 10.746 17.2498 10.5591 17.0973 10.4061C16.7925 10.0833 16.4305 9.77747 16.259 9.67552C16.1828 9.64154 16.0685 9.57358 15.9732 9.53959L15.8208 9.48862H15.3063C15.0205 9.48862 14.6204 9.48862 14.3918 9.48862C14.0869 9.48862 13.9917 9.48862 13.9917 9.48862C13.9917 9.45464 14.3918 8.77499 14.6776 8.33322C15.0015 7.84048 15.192 7.53464 15.535 7.05889C15.9923 6.41322 16.0875 6.27729 16.1256 6.10738C16.1637 5.97145 16.1256 5.86951 16.0875 5.76756C16.0304 5.66561 15.8017 5.44473 15.4397 5.12189C14.7538 4.5272 14.3537 4.28933 13.7821 4.20437C13.4391 4.13641 13.0771 4.11942 12.7722 4.13641C12.6389 4.13641 12.315 4.17039 12.0482 4.17039C11.248 4.20437 11.0003 4.23835 10.7526 4.35729C10.5239 4.45924 10.3715 4.59517 10.0286 5.07092C9.6856 5.52968 9.49507 5.85251 8.52335 7.55163C8.02796 8.43517 7.55163 9.3357 6.98003 10.4741C6.56085 11.2897 6.44653 11.7315 6.56085 12.0033C6.57991 12.0543 6.61801 12.1392 6.63707 12.2072C6.71328 12.4281 6.8276 12.598 7.09435 12.8359C7.28488 13.0058 7.91364 13.5155 8.14228 13.6854C8.37092 13.8553 8.58051 13.9233 8.84725 13.9403C8.92347 13.9403 8.98063 13.9403 8.98063 13.9573C8.98063 13.9743 8.94252 14.0592 8.88536 14.1612C8.56145 14.7729 8.27565 15.3336 8.02796 15.8433C7.87553 16.1661 7.64689 16.6079 7.55163 16.8288C7.07529 17.7973 6.73233 18.6129 6.52275 19.2755C6.46559 19.4624 6.44653 19.5474 6.44653 19.7003C6.44653 19.9722 6.48464 20.0911 6.63707 20.1591C6.69423 20.193 6.73233 20.193 6.80855 20.193C6.92287 20.193 7.1134 20.0911 7.26583 19.9722C7.32299 19.9382 7.49447 19.8192 7.66595 19.7173C8.00891 19.5134 8.40903 19.2415 8.88536 18.8847C9.38075 18.5109 9.47601 18.443 10.0857 17.8992C10.3906 17.6444 10.7526 17.3385 10.905 17.2196C11.8958 16.472 12.4864 15.9792 13.5153 15.0957C13.6487 14.9768 13.9726 14.7049 14.2393 14.484C14.6966 14.1102 15.7255 13.2097 17.0211 12.0543C17.345 11.7654 17.6499 11.4766 17.688 11.4256C17.7452 11.3576 17.7642 11.3237 17.7642 11.2217C17.7642 11.0688 17.7261 10.9838 17.5356 10.8309" fill="white"/>
</g>
</svg>
