<svg width="21" height="31" viewBox="0 0 21 31" fill="none" xmlns="http://www.w3.org/2000/svg">
<path d="M9.1519 19.9542C9.32655 19.7673 9.74572 19.2377 10.095 18.8328C10.4443 18.4278 10.8286 17.9294 11.0032 17.7425C11.5971 17.0883 12.5053 16.0604 12.9943 15.5308C13.2738 15.2193 13.7628 14.6898 14.1121 14.2848C14.4614 13.8798 14.8806 13.4126 15.0902 13.2257C15.9285 12.3535 16.4176 11.8239 16.3826 11.7928C16.3477 11.7616 16.0683 11.7928 15.7189 11.7928C15.3696 11.7928 14.8107 11.7928 14.4964 11.7928C14.182 11.7928 13.7977 11.7928 13.6231 11.8239C12.3656 11.9485 9.71079 11.8239 9.22176 11.637C8.69779 11.419 8.62793 10.9206 9.01217 10.1729C9.08203 10.0483 9.1519 9.83029 9.22176 9.67454C9.32655 9.39418 9.85052 8.42852 10.3046 7.68091C10.619 7.15135 11.2827 5.99879 11.4224 5.71843C11.5971 5.37578 12.5751 3.6625 12.8546 3.2264C12.9943 3.00834 13.2039 2.69684 13.3087 2.47879C13.4484 2.29188 13.5183 2.10498 13.5183 2.10498C13.5183 2.10498 13.134 2.04268 12.6799 2.01153C11.6669 1.94923 8.66286 2.04268 8.41834 2.16728C8.41834 2.16728 8.27862 2.29188 8.17382 2.41649C7.82451 2.82144 7.37041 3.5379 6.32248 5.34463C5.9033 6.06109 5.48413 6.77755 5.37934 6.96445C4.92523 7.71206 3.28347 10.5156 2.89923 11.2009C2.68964 11.6059 2.37526 12.1666 2.23554 12.4469C1.78143 13.3503 1.22253 14.6898 1.22253 14.8144C1.22253 14.939 1.32733 14.9701 1.60678 15.0324C2.06088 15.157 2.51499 15.1882 3.73757 15.2193C4.85537 15.2193 5.9033 15.3128 6.39234 15.3751C7.19575 15.4685 7.37041 16.0604 6.95124 17.2129C6.77658 17.6802 6.53206 18.1475 5.93823 19.2066C5.34441 20.2345 4.57592 21.6986 4.19168 22.5085C3.28347 24.3464 3.00402 24.8448 2.65471 25.5924C2.09581 26.745 1.46705 28.1468 1.32733 28.6452L1.25747 28.8009L1.36226 28.7075C1.43212 28.6452 1.64171 28.4271 1.88623 28.1779C2.41019 27.6483 3.07388 26.9319 3.63278 26.2777C3.84237 26.0285 4.26154 25.5924 4.50606 25.3121C5.69372 23.9726 6.70672 22.82 7.30055 22.1036C7.78958 21.5117 8.66286 20.4526 9.18683 19.8607" fill="white"/>
<path d="M18.5483 13.1944C18.3736 13.0386 18.0592 12.7583 17.8846 12.6025C17.7099 12.4468 17.5702 12.291 17.5353 12.291C17.5003 12.291 17.3257 12.4779 16.5921 13.1632C16.3127 13.4436 15.4743 14.3158 15.0552 14.8142C14.9154 15.0011 14.5661 15.3749 14.3216 15.6553C13.099 17.057 12.5052 17.7735 11.9114 18.49C10.4792 20.2655 8.10388 23.0691 7.47512 23.7544C7.05595 24.1905 6.98608 24.2839 6.98608 24.2839C6.98608 24.2839 7.12581 24.1905 7.26553 24.0659C7.40526 23.9413 7.71964 23.6921 7.96415 23.5052C9.25661 22.5395 10.584 21.4804 11.6319 20.6082C11.9114 20.3901 12.4703 19.9229 12.8894 19.5802C13.3086 19.2376 14.0072 18.6769 14.4264 18.303C15.3696 17.4931 16.4873 16.5275 17.0812 16.0291C17.7099 15.4995 19.2469 14.16 19.3168 14.0666L19.3866 14.0043L19.1072 13.7239C18.9675 13.5682 18.688 13.319 18.5134 13.1632" fill="white"/>
<path d="M5.30951 17.6491C5.34444 17.6491 5.4143 17.5868 5.48417 17.3998C5.65882 17.0572 5.90334 16.4965 5.90334 16.4342C5.90334 16.3719 5.83348 16.3719 5.58896 16.3719C4.71568 16.3096 3.8424 16.2784 3.31844 16.3096H2.72461L3.14378 16.6522C3.3883 16.8391 3.70268 17.0883 3.8424 17.1818C3.98213 17.3064 4.15678 17.431 4.22665 17.4933L4.36637 17.6179H4.78554C5.03006 17.6179 5.23965 17.6491 5.27458 17.6491" fill="white"/>
<path d="M10.8285 9.17608C10.3045 10.1729 10.06 10.6713 10.0949 10.7025C10.0949 10.7025 10.1997 10.7336 10.4792 10.7648C10.6888 10.7648 10.8984 10.7648 10.9333 10.7648C11.0032 10.7648 11.1429 10.7648 11.2826 10.7648C11.4223 10.7648 11.6668 10.7648 11.8415 10.7648H12.1559L12.2956 10.5467C12.3655 10.4221 12.61 10.0483 12.8196 9.70564C13.0292 9.36298 13.3785 8.83342 13.5881 8.52192C13.7976 8.21042 14.0771 7.77431 14.2168 7.55626C14.3565 7.3382 14.636 6.93325 14.8456 6.59059C15.0552 6.27909 15.4045 5.74953 15.6141 5.40688C16.138 4.62811 16.3127 4.34776 16.3127 4.28546C16.3127 4.22316 15.9634 3.9428 15.5093 3.53785L14.7059 2.85254L14.636 2.94599C14.636 3.00829 14.4963 3.13289 14.4264 3.28865C13.9723 4.06741 13.1689 5.31342 12.7497 5.99873C11.3874 8.08581 11.3175 8.17927 10.8285 9.14493" fill="white"/>
<mask id="mask0_722_6798" style="mask-type:luminance" maskUnits="userSpaceOnUse" x="0" y="0" width="21" height="31">
<path d="M20.5046 0.859375H0V30.1408H20.5046V0.859375Z" fill="white"/>
</mask>
<g mask="url(#mask0_722_6798)">
<path d="M19.3518 14.0983C19.2819 14.1917 17.745 15.5312 17.1162 16.0608C16.5224 16.5592 15.4046 17.5248 14.4614 18.3348C14.0423 18.7086 13.3786 19.2693 12.9245 19.6119C12.5053 19.9546 11.9464 20.3907 11.667 20.6399C10.619 21.5121 9.29164 22.5712 7.99919 23.5369C7.75467 23.7238 7.44029 23.973 7.30056 24.0976C7.16084 24.2222 7.02112 24.3156 7.02112 24.3156C7.02112 24.3156 7.09098 24.2533 7.51015 23.7861C8.13891 23.1008 10.5492 20.2972 11.9464 18.5217C12.5402 17.8052 13.1341 17.0576 14.3566 15.687C14.6012 15.4066 14.9505 15.0017 15.0902 14.8459C15.5094 14.3475 16.3128 13.4753 16.6272 13.1949C17.3607 12.4785 17.5354 12.3227 17.5703 12.3227C17.6052 12.3227 17.745 12.4785 17.9196 12.6342C18.0943 12.79 18.3737 13.0703 18.5833 13.2261C18.758 13.3818 19.0374 13.631 19.1771 13.7868L19.4566 14.0671L19.3867 14.1294L19.3518 14.0983ZM4.50607 25.4059C4.26156 25.6863 3.84238 26.1224 3.6328 26.3716C3.0739 27.0257 2.41021 27.7422 1.88624 28.2717C1.64172 28.521 1.39721 28.739 1.36228 28.8013L1.25748 28.8948L1.32734 28.739C1.502 28.2406 2.09583 26.8388 2.65473 25.6863C3.00404 24.9387 3.28349 24.4402 4.1917 22.6024C4.57594 21.8236 5.37935 20.3595 5.93825 19.3004C6.53208 18.2413 6.7766 17.7429 6.95125 17.3068C7.37043 16.1542 7.19577 15.5624 6.39235 15.4689C5.90332 15.4066 4.85539 15.3443 3.73759 15.3132C2.515 15.3132 2.0609 15.2509 1.60679 15.1263C1.29241 15.064 1.22255 15.0017 1.22255 14.9082C1.22255 14.7836 1.81638 13.4441 2.23555 12.5408C2.37528 12.2293 2.68966 11.6686 2.89924 11.2948C3.28349 10.6094 4.89032 7.83706 5.37935 7.0583C5.48415 6.87139 5.90332 6.15493 6.32249 5.43847C7.37043 3.63175 7.82453 2.91529 8.17384 2.51033C8.27864 2.38573 8.38343 2.26113 8.41836 2.26113C8.66288 2.13653 11.667 2.04307 12.68 2.10538C13.1341 2.10538 13.4834 2.16768 13.5183 2.19883C13.5183 2.19883 13.4484 2.38573 13.3087 2.57263C13.169 2.75953 12.9594 3.10219 12.8546 3.32024C12.5752 3.75635 11.5971 5.43847 11.4224 5.81228C11.2827 6.06148 10.619 7.2452 10.3046 7.77476C9.85053 8.49122 9.32657 9.48803 9.22178 9.76838C9.15191 9.92414 9.08205 10.1422 9.01219 10.2668C8.66288 10.9833 8.73274 11.5128 9.22178 11.7309C9.67588 11.9178 12.3656 12.0112 13.6231 11.9178C13.7977 11.9178 14.182 11.9178 14.4964 11.8866C14.8108 11.8866 15.3696 11.8866 15.719 11.8866C16.0683 11.8866 16.3827 11.8866 16.3827 11.8866C16.3827 11.8866 15.9285 12.4473 15.0902 13.3195C14.8806 13.5376 14.4614 14.0048 14.1121 14.3787C13.7628 14.7525 13.2738 15.3132 12.9943 15.6247C12.5053 16.1542 11.5971 17.1822 11.0033 17.8363C10.8635 18.0233 10.4444 18.4905 10.0951 18.9266C9.74574 19.3316 9.32657 19.8611 9.15191 20.048C8.62795 20.6399 7.75467 21.699 7.26563 22.2909C6.6718 23.0073 5.69373 24.1599 4.47114 25.4994L4.50607 25.4059ZM4.36635 17.6183L4.22663 17.4937C4.15676 17.4314 3.98211 17.3068 3.84238 17.1822C3.70266 17.0887 3.38828 16.8395 3.14376 16.6526L2.72459 16.31H3.31842C3.84238 16.31 4.75059 16.31 5.58894 16.3723C5.83346 16.3723 5.90332 16.3723 5.90332 16.4346C5.90332 16.4969 5.6588 17.0576 5.48415 17.4002C5.37935 17.5871 5.34442 17.6494 5.30949 17.6494C5.30949 17.6494 5.06497 17.6494 4.82045 17.6494H4.40128L4.36635 17.6183ZM14.6361 3.00874L14.706 2.91529L15.5094 3.6006C15.9285 3.9744 16.3128 4.31706 16.3128 4.34821C16.3128 4.41051 16.1032 4.69086 15.6142 5.46962C15.4046 5.78113 15.0553 6.31069 14.8457 6.65334C14.6361 6.96484 14.3566 7.40095 14.2169 7.619C14.0772 7.83706 13.7978 8.24201 13.5882 8.58467C13.3786 8.89617 13.0293 9.45688 12.8197 9.76838C12.6101 10.111 12.3656 10.4848 12.2957 10.6094L12.156 10.8275H11.8416C11.667 10.8275 11.4224 10.8275 11.2827 10.8275C11.143 10.8275 11.0033 10.8275 10.9334 10.8275C10.8635 10.8275 10.6889 10.8275 10.4793 10.8275C10.2348 10.8275 10.13 10.8275 10.0951 10.7652C10.0951 10.734 10.3046 10.2356 10.8286 9.23883C11.3176 8.27316 11.3875 8.17971 12.7498 6.09263C13.169 5.43847 13.9724 4.1613 14.4265 3.38254C14.4964 3.25794 14.6012 3.10219 14.6361 3.03989V3.00874ZM20.3648 13.1326C20.2251 13.008 19.8758 12.6654 19.5963 12.385C19.0374 11.7932 18.3737 11.2325 18.0593 11.0456C17.9196 10.9833 17.71 10.8587 17.5354 10.7963L17.2559 10.7029H16.3128C15.7888 10.7029 15.0553 10.7029 14.6361 10.7029C14.0772 10.7029 13.9025 10.7029 13.9025 10.7029C13.9025 10.6406 14.6361 9.39458 15.1601 8.58467C15.7539 7.6813 16.1032 7.1206 16.732 6.24838C17.5703 5.06467 17.745 4.81546 17.8148 4.50396C17.8847 4.25476 17.8148 4.06785 17.745 3.88095C17.6402 3.69405 17.221 3.28909 16.5573 2.69723C15.2998 1.60697 14.5662 1.17086 13.5183 1.01511C12.8895 0.890508 12.2259 0.859357 11.667 0.890508C11.4224 0.890508 10.8286 0.952809 10.3396 0.952809C8.87246 1.01511 8.41836 1.07741 7.96425 1.29546C7.54508 1.48237 7.26563 1.73157 6.63687 2.60378C6.00811 3.44484 5.6588 4.0367 3.87732 7.15175C2.96911 8.77157 2.09583 10.4225 1.0479 12.5096C0.279411 14.0048 0.0698243 14.8148 0.279411 15.3132C0.314342 15.4066 0.384204 15.5624 0.419135 15.687C0.55886 16.0919 0.768447 16.4034 1.25748 16.8395C1.60679 17.151 2.75952 18.0856 3.17869 18.3971C3.59787 18.7086 3.98211 18.8332 4.47114 18.8643C4.61087 18.8643 4.71566 18.8643 4.71566 18.8955C4.71566 18.9266 4.6458 19.0824 4.54101 19.2693C3.94718 20.3907 3.42321 21.4186 2.96911 22.3532C2.68966 22.945 2.27048 23.7549 2.09583 24.1599C1.22255 25.9355 0.593791 27.4307 0.209549 28.6456C0.104755 28.9882 0.0698242 29.144 0.0698242 29.4243C0.0698242 29.9227 0.139686 30.1408 0.419135 30.2654C0.523929 30.3277 0.593791 30.3277 0.733516 30.3277C0.943102 30.3277 1.29241 30.1408 1.57186 29.9227C1.67666 29.8604 1.99104 29.6424 2.30542 29.4555C2.93418 29.0817 3.66773 28.5833 4.54101 27.9291C5.44921 27.2438 5.62387 27.1192 6.74167 26.1224C7.30056 25.6551 7.96426 25.0944 8.2437 24.8764C10.0601 23.5057 11.143 22.6024 13.0293 20.9825C13.2738 20.7645 13.8676 20.2661 14.3566 19.8611C15.195 19.1758 17.0813 17.5248 19.4566 15.4066C20.0504 14.8771 20.6093 14.3475 20.6792 14.254C20.784 14.1294 20.8189 14.0671 20.8189 13.8802C20.8189 13.5999 20.749 13.4441 20.3997 13.1638" fill="black"/>
</g>
<mask id="mask1_722_6798" style="mask-type:luminance" maskUnits="userSpaceOnUse" x="0" y="0" width="21" height="31">
<path d="M20.5046 0.859375H0V30.1408H20.5046V0.859375Z" fill="white"/>
</mask>
<g mask="url(#mask1_722_6798)">
<path d="M19.3518 14.0983C19.2819 14.1917 17.745 15.5312 17.1162 16.0608C16.5224 16.5592 15.4046 17.5248 14.4614 18.3348C14.0423 18.7086 13.3786 19.2693 12.9245 19.6119C12.5053 19.9546 11.9464 20.3907 11.667 20.6399C10.619 21.5121 9.29164 22.5712 7.99919 23.5369C7.75467 23.7238 7.44029 23.973 7.30056 24.0976C7.16084 24.2222 7.02112 24.3156 7.02112 24.3156C7.02112 24.3156 7.09098 24.2533 7.51015 23.7861C8.13891 23.1008 10.5492 20.2972 11.9464 18.5217C12.5402 17.8052 13.1341 17.0576 14.3566 15.687C14.6012 15.4066 14.9505 15.0017 15.0902 14.8459C15.5094 14.3475 16.3128 13.4753 16.6272 13.1949C17.3607 12.4785 17.5354 12.3227 17.5703 12.3227C17.6052 12.3227 17.745 12.4785 17.9196 12.6342C18.0943 12.79 18.3737 13.0703 18.5833 13.2261C18.758 13.3818 19.0374 13.631 19.1771 13.7868L19.4566 14.0671L19.3867 14.1294L19.3518 14.0983ZM4.50607 25.4059C4.26156 25.6863 3.84238 26.1224 3.6328 26.3716C3.0739 27.0257 2.41021 27.7422 1.88624 28.2717C1.64172 28.521 1.39721 28.739 1.36228 28.8013L1.25748 28.8948L1.32734 28.739C1.502 28.2406 2.09583 26.8388 2.65473 25.6863C3.00404 24.9387 3.28349 24.4402 4.1917 22.6024C4.57594 21.8236 5.37935 20.3595 5.93825 19.3004C6.53208 18.2413 6.7766 17.7429 6.95125 17.3068C7.37043 16.1542 7.19577 15.5624 6.39235 15.4689C5.90332 15.4066 4.85539 15.3443 3.73759 15.3132C2.515 15.3132 2.0609 15.2509 1.60679 15.1263C1.29241 15.064 1.22255 15.0017 1.22255 14.9082C1.22255 14.7836 1.81638 13.4441 2.23555 12.5408C2.37528 12.2293 2.68966 11.6686 2.89924 11.2948C3.28349 10.6094 4.89032 7.83706 5.37935 7.0583C5.48415 6.87139 5.90332 6.15493 6.32249 5.43847C7.37043 3.63175 7.82453 2.91529 8.17384 2.51033C8.27864 2.38573 8.38343 2.26113 8.41836 2.26113C8.66288 2.13653 11.667 2.04307 12.68 2.10538C13.1341 2.10538 13.4834 2.16768 13.5183 2.19883C13.5183 2.19883 13.4484 2.38573 13.3087 2.57263C13.169 2.75953 12.9594 3.10219 12.8546 3.32024C12.5752 3.75635 11.5971 5.43847 11.4224 5.81228C11.2827 6.06148 10.619 7.2452 10.3046 7.77476C9.85053 8.49122 9.32657 9.48803 9.22178 9.76838C9.15191 9.92414 9.08205 10.1422 9.01219 10.2668C8.66288 10.9833 8.73274 11.5128 9.22178 11.7309C9.67588 11.9178 12.3656 12.0112 13.6231 11.9178C13.7977 11.9178 14.182 11.9178 14.4964 11.8866C14.8108 11.8866 15.3696 11.8866 15.719 11.8866C16.0683 11.8866 16.3827 11.8866 16.3827 11.8866C16.3827 11.8866 15.9285 12.4473 15.0902 13.3195C14.8806 13.5376 14.4614 14.0048 14.1121 14.3787C13.7628 14.7525 13.2738 15.3132 12.9943 15.6247C12.5053 16.1542 11.5971 17.1822 11.0033 17.8363C10.8635 18.0233 10.4444 18.4905 10.0951 18.9266C9.74574 19.3316 9.32657 19.8611 9.15191 20.048C8.62795 20.6399 7.75467 21.699 7.26563 22.2909C6.6718 23.0073 5.69373 24.1599 4.47114 25.4994L4.50607 25.4059ZM4.36635 17.6183L4.22663 17.4937C4.15676 17.4314 3.98211 17.3068 3.84238 17.1822C3.70266 17.0887 3.38828 16.8395 3.14376 16.6526L2.72459 16.31H3.31842C3.84238 16.31 4.75059 16.31 5.58894 16.3723C5.83346 16.3723 5.90332 16.3723 5.90332 16.4346C5.90332 16.4969 5.6588 17.0576 5.48415 17.4002C5.37935 17.5871 5.34442 17.6494 5.30949 17.6494C5.30949 17.6494 5.06497 17.6494 4.82045 17.6494H4.40128L4.36635 17.6183ZM14.6361 3.00874L14.706 2.91529L15.5094 3.6006C15.9285 3.9744 16.3128 4.31706 16.3128 4.34821C16.3128 4.41051 16.1032 4.69086 15.6142 5.46962C15.4046 5.78113 15.0553 6.31069 14.8457 6.65334C14.6361 6.96484 14.3566 7.40095 14.2169 7.619C14.0772 7.83706 13.7978 8.24201 13.5882 8.58467C13.3786 8.89617 13.0293 9.45688 12.8197 9.76838C12.6101 10.111 12.3656 10.4848 12.2957 10.6094L12.156 10.8275H11.8416C11.667 10.8275 11.4224 10.8275 11.2827 10.8275C11.143 10.8275 11.0033 10.8275 10.9334 10.8275C10.8635 10.8275 10.6889 10.8275 10.4793 10.8275C10.2348 10.8275 10.13 10.8275 10.0951 10.7652C10.0951 10.734 10.3046 10.2356 10.8286 9.23883C11.3176 8.27316 11.3875 8.17971 12.7498 6.09263C13.169 5.43847 13.9724 4.1613 14.4265 3.38254C14.4964 3.25794 14.6012 3.10219 14.6361 3.03989V3.00874ZM20.3648 13.1326C20.2251 13.008 19.8758 12.6654 19.5963 12.385C19.0374 11.7932 18.3737 11.2325 18.0593 11.0456C17.9196 10.9833 17.71 10.8587 17.5354 10.7963L17.2559 10.7029H16.3128C15.7888 10.7029 15.0553 10.7029 14.6361 10.7029C14.0772 10.7029 13.9025 10.7029 13.9025 10.7029C13.9025 10.6406 14.6361 9.39458 15.1601 8.58467C15.7539 7.6813 16.1032 7.1206 16.732 6.24838C17.5703 5.06467 17.745 4.81546 17.8148 4.50396C17.8847 4.25476 17.8148 4.06785 17.745 3.88095C17.6402 3.69405 17.221 3.28909 16.5573 2.69723C15.2998 1.60697 14.5662 1.17086 13.5183 1.01511C12.8895 0.890508 12.2259 0.859357 11.667 0.890508C11.4224 0.890508 10.8286 0.952809 10.3396 0.952809C8.87246 1.01511 8.41836 1.07741 7.96425 1.29546C7.54508 1.48237 7.26563 1.73157 6.63687 2.60378C6.00811 3.44484 5.6588 4.0367 3.87732 7.15175C2.96911 8.77157 2.09583 10.4225 1.0479 12.5096C0.279411 14.0048 0.0698243 14.8148 0.279411 15.3132C0.314342 15.4066 0.384204 15.5624 0.419135 15.687C0.55886 16.0919 0.768447 16.4034 1.25748 16.8395C1.60679 17.151 2.75952 18.0856 3.17869 18.3971C3.59787 18.7086 3.98211 18.8332 4.47114 18.8643C4.61087 18.8643 4.71566 18.8643 4.71566 18.8955C4.71566 18.9266 4.6458 19.0824 4.54101 19.2693C3.94718 20.3907 3.42321 21.4186 2.96911 22.3532C2.68966 22.945 2.27048 23.7549 2.09583 24.1599C1.22255 25.9355 0.593791 27.4307 0.209549 28.6456C0.104755 28.9882 0.0698242 29.144 0.0698242 29.4243C0.0698242 29.9227 0.139686 30.1408 0.419135 30.2654C0.523929 30.3277 0.593791 30.3277 0.733516 30.3277C0.943102 30.3277 1.29241 30.1408 1.57186 29.9227C1.67666 29.8604 1.99104 29.6424 2.30542 29.4555C2.93418 29.0817 3.66773 28.5833 4.54101 27.9291C5.44921 27.2438 5.62387 27.1192 6.74167 26.1224C7.30056 25.6551 7.96426 25.0944 8.2437 24.8764C10.0601 23.5057 11.143 22.6024 13.0293 20.9825C13.2738 20.7645 13.8676 20.2661 14.3566 19.8611C15.195 19.1758 17.0813 17.5248 19.4566 15.4066C20.0504 14.8771 20.6093 14.3475 20.6792 14.254C20.784 14.1294 20.8189 14.0671 20.8189 13.8802C20.8189 13.5999 20.749 13.4441 20.3997 13.1638" fill="black"/>
</g>
</svg>
