<svg width="19" height="19" viewBox="0 0 19 19" fill="none" xmlns="http://www.w3.org/2000/svg">
<g clipPath="url(#clip0_937_668)">
<path d="M15.7507 3.78017L12.3608 0.57315C12.0003 0.232029 11.5283 0.0441895 11.032 0.0441895H4.57812C3.51194 0.0441895 2.64453 0.9116 2.64453 1.97778V16.1106C2.64453 17.1768 3.51194 18.0442 4.57812 18.0442H14.4219C15.4881 18.0442 16.3555 17.1768 16.3555 16.1106V5.18481C16.3555 4.65574 16.135 4.14376 15.7507 3.78017ZM14.7264 4.26294H12.1016C12.0046 4.26294 11.9258 4.18408 11.9258 4.08716V1.61342L14.7264 4.26294ZM14.4219 16.9895H4.57812C4.0935 16.9895 3.69922 16.5952 3.69922 16.1106V1.97778C3.69922 1.49315 4.0935 1.09888 4.57812 1.09888H10.8711V4.08716C10.8711 4.76564 11.4231 5.31763 12.1016 5.31763H15.3008V16.1106C15.3008 16.5952 14.9065 16.9895 14.4219 16.9895Z" fill="#F4F4F5"/>
<path d="M13.2617 7.07544H5.52734C5.23611 7.07544 5 7.31155 5 7.60278C5 7.89402 5.23611 8.13013 5.52734 8.13013H13.2617C13.553 8.13013 13.7891 7.89402 13.7891 7.60278C13.7891 7.31155 13.553 7.07544 13.2617 7.07544Z" fill="#F4F4F5"/>
<path d="M13.2617 9.88794H5.52734C5.23611 9.88794 5 10.124 5 10.4153C5 10.7065 5.23611 10.9426 5.52734 10.9426H13.2617C13.553 10.9426 13.7891 10.7065 13.7891 10.4153C13.7891 10.124 13.553 9.88794 13.2617 9.88794Z" fill="#F4F4F5"/>
<path d="M8.08391 12.7004H5.52734C5.23611 12.7004 5 12.9365 5 13.2278C5 13.519 5.23611 13.7551 5.52734 13.7551H8.08391C8.37514 13.7551 8.61125 13.519 8.61125 13.2278C8.61125 12.9365 8.37514 12.7004 8.08391 12.7004Z" fill="#F4F4F5"/>
</g>
<defs>
<clipPath id="clip0_937_668">
<rect width="18" height="18" fill="white" transform="translate(0.5 0.0442505)"/>
</clipPath>
</defs>
</svg>
