<svg width="24" height="25" viewBox="0 0 24 25" fill="none" xmlns="http://www.w3.org/2000/svg">
<g clipPath="url(#clip0_738_814)">
<path d="M18 9.16922C18.0002 8.76698 17.9207 8.36869 17.7662 7.99729C17.6118 7.62589 17.3854 7.28873 17.1 7.00522C16.5161 6.44807 15.7401 6.13722 14.933 6.13722C14.1259 6.13722 13.3499 6.44807 12.766 7.00522L0.900009 18.8742C0.358428 19.4549 0.0634503 20.2232 0.0772451 21.0172C0.09104 21.8111 0.412529 22.5687 0.973957 23.1303C1.53539 23.6918 2.2929 24.0135 3.08685 24.0275C3.88079 24.0415 4.64916 23.7467 5.23001 23.2052L17.1 11.3362C17.3858 11.0524 17.6125 10.7148 17.767 10.3428C17.9215 9.97087 18.0007 9.57198 18 9.16922ZM3.81601 21.7932C3.61386 21.9859 3.34529 22.0934 3.06601 22.0934C2.78673 22.0934 2.51816 21.9859 2.31601 21.7932C2.11742 21.5941 2.0059 21.3244 2.0059 21.0432C2.0059 20.762 2.11742 20.4923 2.31601 20.2932L10.085 12.5232L11.59 14.0282L3.81601 21.7932ZM15.688 9.92122L13 12.6102L11.5 11.1052L14.189 8.41722C14.2849 8.30772 14.4022 8.21906 14.5337 8.15675C14.6652 8.09443 14.8081 8.05979 14.9536 8.05496C15.099 8.05013 15.2439 8.07522 15.3793 8.12868C15.5147 8.18213 15.6376 8.26282 15.7405 8.36572C15.8434 8.46863 15.9241 8.59157 15.9776 8.72693C16.031 8.86229 16.0561 9.00719 16.0513 9.15264C16.0464 9.2981 16.0118 9.44101 15.9495 9.57253C15.8872 9.70404 15.7985 9.82137 15.689 9.91722L15.688 9.92122ZM4.86301 2.96022L6.41301 2.51822L6.85501 0.968221C6.92621 0.719506 7.07647 0.500739 7.28305 0.345001C7.48963 0.189264 7.7413 0.105026 8.00001 0.105026C8.25872 0.105026 8.51039 0.189264 8.71697 0.345001C8.92355 0.500739 9.0738 0.719506 9.14501 0.968221L9.58701 2.51822L11.137 2.96022C11.3857 3.03143 11.6045 3.18168 11.7602 3.38826C11.916 3.59484 12.0002 3.84651 12.0002 4.10522C12.0002 4.36393 11.916 4.6156 11.7602 4.82218C11.6045 5.02876 11.3857 5.17902 11.137 5.25022L9.58701 5.69222L9.14501 7.24222C9.0738 7.49094 8.92355 7.7097 8.71697 7.86544C8.51039 8.02118 8.25872 8.10542 8.00001 8.10542C7.7413 8.10542 7.48963 8.02118 7.28305 7.86544C7.07647 7.7097 6.92621 7.49094 6.85501 7.24222L6.41301 5.69222L4.86301 5.25022C4.61429 5.17902 4.39553 5.02876 4.23979 4.82218C4.08405 4.6156 3.99981 4.36393 3.99981 4.10522C3.99981 3.84651 4.08405 3.59484 4.23979 3.38826C4.39553 3.18168 4.61429 3.03143 4.86301 2.96022ZM23.137 17.2502L21.587 17.6922L21.145 19.2422C21.0738 19.4909 20.9236 19.7097 20.717 19.8654C20.5104 20.0212 20.2587 20.1054 20 20.1054C19.7413 20.1054 19.4896 20.0212 19.283 19.8654C19.0765 19.7097 18.9262 19.4909 18.855 19.2422L18.413 17.6922L16.863 17.2502C16.6143 17.179 16.3955 17.0288 16.2398 16.8222C16.0841 16.6156 15.9998 16.3639 15.9998 16.1052C15.9998 15.8465 16.0841 15.5948 16.2398 15.3883C16.3955 15.1817 16.6143 15.0314 16.863 14.9602L18.413 14.5182L18.855 12.9682C18.9262 12.7195 19.0765 12.5007 19.283 12.345C19.4896 12.1893 19.7413 12.105 20 12.105C20.2587 12.105 20.5104 12.1893 20.717 12.345C20.9236 12.5007 21.0738 12.7195 21.145 12.9682L21.587 14.5182L23.137 14.9602C23.3857 15.0314 23.6045 15.1817 23.7602 15.3883C23.916 15.5948 24.0002 15.8465 24.0002 16.1052C24.0002 16.3639 23.916 16.6156 23.7602 16.8222C23.6045 17.0288 23.3857 17.179 23.137 17.2502ZM17.755 2.60522L19.111 2.21822L19.5 0.860221C19.5633 0.644038 19.695 0.454193 19.8753 0.319134C20.0555 0.184075 20.2747 0.111076 20.5 0.111076C20.7253 0.111076 20.9445 0.184075 21.1248 0.319134C21.305 0.454193 21.4367 0.644038 21.5 0.860221L21.887 2.21622L23.243 2.60322C23.4592 2.66653 23.649 2.79819 23.7841 2.97848C23.9192 3.15876 23.9922 3.37796 23.9922 3.60322C23.9922 3.82848 23.9192 4.04768 23.7841 4.22796C23.649 4.40825 23.4592 4.53991 23.243 4.60322L21.887 4.99022L21.5 6.34922C21.4367 6.5654 21.305 6.75525 21.1248 6.89031C20.9445 7.02537 20.7253 7.09837 20.5 7.09837C20.2747 7.09837 20.0555 7.02537 19.8753 6.89031C19.695 6.75525 19.5633 6.5654 19.5 6.34922L19.113 4.99422L17.755 4.60522C17.5388 4.54191 17.349 4.41025 17.2139 4.22996C17.0789 4.04968 17.0059 3.83048 17.0059 3.60522C17.0059 3.37996 17.0789 3.16076 17.2139 2.98048C17.349 2.80019 17.5388 2.66853 17.755 2.60522Z" fill="white"/>
</g>
<defs>
<clipPath id="clip0_738_814">
<rect width="24" height="24" fill="white" transform="translate(0 0.105225)"/>
</clipPath>
</defs>
</svg>
