<svg width="42" height="43" viewBox="0 0 42 43" fill="none" xmlns="http://www.w3.org/2000/svg">
<g clipPath="url(#clip0_346_11602)">
<path d="M21 42.501C9.42014 42.501 0 33.0808 0 21.501C0 9.92111 9.42014 0.500977 21 0.500977C32.5799 0.500977 42 9.92111 42 21.501C42 33.0808 32.5799 42.501 21 42.501ZM21 3.12598C10.8675 3.12598 2.625 11.3685 2.625 21.501C2.625 31.6334 10.8675 39.876 21 39.876C31.1325 39.876 39.375 31.6334 39.375 21.501C39.375 11.3685 31.1325 3.12598 21 3.12598Z" fill="#333333"/>
<path d="M14.5041 29.3094C14.1679 29.3094 13.8318 29.1818 13.5764 28.9245C13.0637 28.4118 13.0637 27.5806 13.5764 27.0679L26.57 14.074C27.0831 13.5613 27.9143 13.5613 28.427 14.074C28.9397 14.5867 28.9397 15.4179 28.427 15.9309L15.433 28.9245C15.1741 29.1818 14.8383 29.3094 14.5041 29.3094Z" fill="#999999"/>
<path d="M27.4957 29.3094C27.1598 29.3094 26.8237 29.1819 26.5683 28.9245L13.5747 15.9325C13.0617 15.4198 13.0617 14.5886 13.5747 14.0759C14.0874 13.5629 14.9186 13.5629 15.4313 14.0759L28.4249 27.0695C28.9379 27.5822 28.9379 28.4134 28.4249 28.9261C28.1679 29.1819 27.8318 29.3094 27.4957 29.3094Z" fill="#999999"/>
</g>
<defs>
<clipPath id="clip0_346_11602">
<rect width="42" height="42" fill="white" transform="translate(0 0.500977)"/>
</clipPath>
</defs>
</svg>
