<svg width="21" height="20" viewBox="0 0 21 20" fill="none" xmlns="http://www.w3.org/2000/svg">
<rect x="0.75" width="20" height="20.0011" rx="10" fill="#fff"/>
<path d="M15.7316 4.53921C15.0126 3.82026 13.8471 3.82026 13.1281 4.53921L5.82968 11.8376C5.77966 11.8877 5.74355 11.9497 5.72469 12.0177L4.76493 15.4827C4.72546 15.6248 4.76557 15.7769 4.86976 15.8812C4.97411 15.9854 5.12624 16.0255 5.2683 15.9862L8.73327 15.0263C8.80134 15.0074 8.86334 14.9713 8.91336 14.9213L16.2116 7.62273C16.9295 6.9033 16.9295 5.73867 16.2116 5.01925L15.7316 4.53921ZM6.72105 12.1035L12.6943 6.13019L14.6207 8.05659L8.64729 14.0299L6.72105 12.1035ZM6.33625 12.8757L7.87529 14.4149L5.74643 15.0047L6.33625 12.8757ZM15.6332 7.04425L15.1993 7.47811L13.2727 5.55155L13.7068 5.11769C14.1061 4.71835 14.7536 4.71835 15.153 5.11769L15.6332 5.59773C16.0319 5.99755 16.0319 6.64459 15.6332 7.04425Z" fill="#000"/>
</svg>
