<svg width="181" height="36" viewBox="0 0 181 36" fill="none" xmlns="http://www.w3.org/2000/svg">
<path d="M12.0971 22.4283C12.2717 22.2414 12.6909 21.7118 13.0402 21.3069C13.3895 20.9019 13.7738 20.4035 13.9484 20.2166C14.5423 19.5625 15.4505 18.5345 15.9395 18.0049C16.219 17.6934 16.708 17.1639 17.0573 16.7589C17.4066 16.354 17.8258 15.8867 18.0354 15.6998C18.8737 14.8276 19.3628 14.298 19.3278 14.2669C19.2929 14.2357 19.0134 14.2669 18.6641 14.2669C18.3148 14.2669 17.7559 14.2669 17.4415 14.2669C17.1272 14.2669 16.7429 14.2669 16.5683 14.298C15.3107 14.4226 12.656 14.298 12.1669 14.1111C11.643 13.8931 11.5731 13.3947 11.9574 12.6471C12.0272 12.5225 12.0971 12.3044 12.1669 12.1487C12.2717 11.8683 12.7957 10.9026 13.2498 10.155C13.5642 9.62547 14.2279 8.47291 14.3676 8.19255C14.5423 7.8499 15.5203 6.13662 15.7998 5.70052C15.9395 5.48246 16.1491 5.17096 16.2539 4.95291C16.3936 4.766 16.4635 4.5791 16.4635 4.5791C16.4635 4.5791 16.0792 4.5168 15.6251 4.48565C14.6121 4.42335 11.6081 4.5168 11.3635 4.6414C11.3635 4.6414 11.2238 4.766 11.119 4.89061C10.7697 5.29556 10.3156 6.01202 9.26767 7.81875C8.84849 8.53521 8.42932 9.25167 8.32453 9.43857C7.87042 10.1862 6.22866 12.9897 5.84442 13.675C5.63483 14.08 5.32045 14.6407 5.18073 14.9211C4.72662 15.8244 4.16772 17.1639 4.16772 17.2885C4.16772 17.4131 4.27252 17.4442 4.55197 17.5065C5.00607 17.6311 5.46018 17.6623 6.68276 17.6934C7.80056 17.6934 8.84849 17.7869 9.33753 17.8492C10.1409 17.9426 10.3156 18.5345 9.89643 19.6871C9.72177 20.1543 9.47725 20.6216 8.88342 21.6807C8.2896 22.7087 7.52111 24.1727 7.13687 24.9826C6.22866 26.8205 5.94921 27.3189 5.5999 28.0665C5.041 29.2191 4.41224 30.6209 4.27252 31.1193L4.20266 31.275L4.30745 31.1816C4.37731 31.1193 4.5869 30.9012 4.83142 30.652C5.35538 30.1225 6.01907 29.406 6.57797 28.7518C6.78756 28.5026 7.20673 28.0665 7.45125 27.7862C8.63891 26.4467 9.65191 25.2941 10.2457 24.5777C10.7348 23.9858 11.6081 22.9267 12.132 22.3349" fill="white"/>
<path d="M21.4938 15.669C21.3192 15.5132 21.0048 15.2329 20.8301 15.0771C20.6555 14.9214 20.5158 14.7656 20.4808 14.7656C20.4459 14.7656 20.2712 14.9525 19.5377 15.6378C19.2582 15.9182 18.4199 16.7904 18.0007 17.2888C17.861 17.4757 17.5117 17.8495 17.2672 18.1299C16.0446 19.5316 15.4508 20.2481 14.8569 20.9646C13.4248 22.7401 11.0494 25.5437 10.4207 26.229C10.0015 26.6651 9.93164 26.7585 9.93164 26.7585C9.93164 26.7585 10.0714 26.6651 10.2111 26.5405C10.3508 26.4159 10.6652 26.1667 10.9097 25.9798C12.2022 25.0141 13.5295 23.955 14.5775 23.0828C14.8569 22.8647 15.4158 22.3975 15.835 22.0548C16.2542 21.7122 16.9528 21.1515 17.372 20.7777C18.3151 19.9677 19.4329 19.0021 20.0267 18.5037C20.6555 17.9741 22.1925 16.6347 22.2623 16.5412L22.3322 16.4789L22.0527 16.1985C21.913 16.0428 21.6336 15.7936 21.4589 15.6378" fill="white"/>
<path d="M8.25482 20.1233C8.28975 20.1233 8.35962 20.061 8.42948 19.8741C8.60413 19.5314 8.84865 18.9707 8.84865 18.9084C8.84865 18.8461 8.77879 18.8461 8.53427 18.8461C7.66099 18.7838 6.78772 18.7527 6.26375 18.7838H5.66992L6.0891 19.1265C6.33361 19.3134 6.64799 19.5626 6.78772 19.656C6.92744 19.7806 7.1021 19.9052 7.17196 19.9675L7.31168 20.0921H7.73086C7.97537 20.0921 8.18496 20.1233 8.21989 20.1233" fill="white"/>
<path d="M13.7739 11.6507C13.25 12.6475 13.0055 13.1459 13.0404 13.1771C13.0404 13.1771 13.1452 13.2082 13.4246 13.2394C13.6342 13.2394 13.8438 13.2394 13.8787 13.2394C13.9486 13.2394 14.0883 13.2394 14.228 13.2394C14.3678 13.2394 14.6123 13.2394 14.7869 13.2394H15.1013L15.241 13.0213C15.3109 12.8967 15.5554 12.5229 15.765 12.1802C15.9746 11.8376 16.3239 11.308 16.5335 10.9965C16.7431 10.685 17.0225 10.2489 17.1623 10.0309C17.302 9.81281 17.5814 9.40786 17.791 9.0652C18.0006 8.7537 18.3499 8.22414 18.5595 7.88148C19.0835 7.10272 19.2581 6.82237 19.2581 6.76007C19.2581 6.69777 18.9088 6.41741 18.4547 6.01246L17.6513 5.32715L17.5814 5.4206C17.5814 5.4829 17.4417 5.6075 17.3718 5.76325C16.9177 6.54202 16.1143 7.78803 15.6951 8.47334C14.3328 10.5604 14.263 10.6539 13.7739 11.6195" fill="white"/>
<mask id="mask0_734_2946" style="mask-type:luminance" maskUnits="userSpaceOnUse" x="2" y="3" width="22" height="30">
<path d="M23.4499 3.33301H2.94531V32.6144H23.4499V3.33301Z" fill="white"/>
</mask>
<g mask="url(#mask0_734_2946)">
<path d="M22.2976 16.5716C22.2277 16.665 20.6908 18.0045 20.062 18.534C19.4682 19.0324 18.3504 19.9981 17.4072 20.808C16.9881 21.1818 16.3244 21.7425 15.8703 22.0852C15.4511 22.4278 14.8922 22.864 14.6128 23.1132C13.5648 23.9854 12.2374 25.0445 10.945 26.0101C10.7005 26.1971 10.3861 26.4463 10.2464 26.5709C10.1066 26.6955 9.96692 26.7889 9.96692 26.7889C9.96692 26.7889 10.0368 26.7266 10.456 26.2594C11.0847 25.574 13.495 22.7705 14.8922 20.9949C15.486 20.2785 16.0799 19.5309 17.3024 18.1602C17.547 17.8799 17.8963 17.4749 18.036 17.3192C18.4552 16.8208 19.2586 15.9486 19.573 15.6682C20.3065 14.9517 20.4812 14.796 20.5161 14.796C20.551 14.796 20.6908 14.9517 20.8654 15.1075C21.0401 15.2632 21.3195 15.5436 21.5291 15.6994C21.7038 15.8551 21.9832 16.1043 22.1229 16.2601L22.4024 16.5404L22.3325 16.6027L22.2976 16.5716ZM7.45188 27.8792C7.20736 28.1595 6.78818 28.5956 6.5786 28.8448C6.0197 29.499 5.35601 30.2155 4.83204 30.745C4.58752 30.9942 4.34301 31.2123 4.30808 31.2746L4.20328 31.368L4.27315 31.2123C4.4478 30.7139 5.04163 29.3121 5.60053 28.1595C5.94984 27.4119 6.22929 26.9135 7.1375 25.0756C7.52174 24.2969 8.32515 22.8328 8.88405 21.7737C9.47788 20.7146 9.7224 20.2162 9.89705 19.7801C10.3162 18.6275 10.1416 18.0356 9.33816 17.9422C8.84912 17.8799 7.80119 17.8176 6.68339 17.7864C5.4608 17.7864 5.0067 17.7241 4.55259 17.5995C4.23821 17.5372 4.16835 17.4749 4.16835 17.3815C4.16835 17.2569 4.76218 15.9174 5.18135 15.014C5.32108 14.7025 5.63546 14.1418 5.84504 13.768C6.22929 13.0827 7.83612 10.3103 8.32515 9.53156C8.42995 9.34466 8.84912 8.6282 9.26829 7.91174C10.3162 6.10501 10.7703 5.38855 11.1196 4.9836C11.2244 4.859 11.3292 4.73439 11.3642 4.73439C11.6087 4.60979 14.6128 4.51634 15.6258 4.57864C16.0799 4.57864 16.4292 4.64094 16.4641 4.67209C16.4641 4.67209 16.3942 4.859 16.2545 5.0459C16.1148 5.2328 15.9052 5.57546 15.8004 5.79351C15.521 6.22962 14.5429 7.91174 14.3682 8.28554C14.2285 8.53475 13.5648 9.71847 13.2504 10.248C12.7963 10.9645 12.2724 11.9613 12.1676 12.2417C12.0977 12.3974 12.0279 12.6155 11.958 12.7401C11.6087 13.4565 11.6785 13.9861 12.1676 14.2041C12.6217 14.391 15.3114 14.4845 16.5689 14.391C16.7436 14.391 17.1278 14.391 17.4422 14.3599C17.7566 14.3599 18.3155 14.3599 18.6648 14.3599C19.0141 14.3599 19.3285 14.3599 19.3285 14.3599C19.3285 14.3599 18.8743 14.9206 18.036 15.7928C17.8264 16.0109 17.4072 16.4781 17.0579 16.8519C16.7086 17.2257 16.2196 17.7864 15.9401 18.0979C15.4511 18.6275 14.5429 19.6555 13.9491 20.3096C13.8093 20.4965 13.3902 20.9638 13.0409 21.3999C12.6915 21.8048 12.2724 22.3344 12.0977 22.5213C11.5737 23.1132 10.7005 24.1723 10.2114 24.7641C9.6176 25.4806 8.63953 26.6332 7.41694 27.9726L7.45188 27.8792ZM7.31215 20.0916L7.17243 19.967C7.10256 19.9047 6.92791 19.7801 6.78818 19.6555C6.64846 19.562 6.33408 19.3128 6.08956 19.1259L5.67039 18.7832H6.26422C6.78818 18.7832 7.69639 18.7832 8.53474 18.8455C8.77926 18.8455 8.84912 18.8455 8.84912 18.9078C8.84912 18.9701 8.6046 19.5309 8.42995 19.8735C8.32515 20.0604 8.29022 20.1227 8.25529 20.1227C8.25529 20.1227 8.01077 20.1227 7.76626 20.1227H7.34708L7.31215 20.0916ZM17.5819 5.482L17.6518 5.38855L18.4552 6.07386C18.8743 6.44767 19.2586 6.79032 19.2586 6.82147C19.2586 6.88377 19.049 7.16413 18.56 7.94289C18.3504 8.25439 18.0011 8.78395 17.7915 9.12661C17.5819 9.43811 17.3024 9.87422 17.1627 10.0923C17.023 10.3103 16.7436 10.7153 16.534 11.0579C16.3244 11.3694 15.9751 11.9301 15.7655 12.2417C15.5559 12.5843 15.3114 12.9581 15.2415 13.0827L15.1018 13.3008H14.7874C14.6128 13.3008 14.3682 13.3008 14.2285 13.3008C14.0888 13.3008 13.9491 13.3008 13.8792 13.3008C13.8093 13.3008 13.6347 13.3008 13.4251 13.3008C13.1806 13.3008 13.0758 13.3008 13.0409 13.2385C13.0409 13.2073 13.2504 12.7089 13.7744 11.7121C14.2634 10.7464 14.3333 10.653 15.6956 8.5659C16.1148 7.91174 16.9182 6.63457 17.3723 5.85581C17.4422 5.73121 17.547 5.57546 17.5819 5.51316V5.482ZM23.3106 15.6059C23.1709 15.4813 22.8216 15.1386 22.5421 14.8583C21.9832 14.2664 21.3195 13.7057 21.0051 13.5188C20.8654 13.4565 20.6558 13.3319 20.4812 13.2696L20.2017 13.1762H19.2586C18.7346 13.1762 18.0011 13.1762 17.5819 13.1762C17.023 13.1762 16.8483 13.1762 16.8483 13.1762C16.8483 13.1139 17.5819 11.8678 18.1059 11.0579C18.6997 10.1546 19.049 9.59386 19.6778 8.72165C20.5161 7.53793 20.6908 7.28873 20.7606 6.97723C20.8305 6.72802 20.7606 6.54112 20.6908 6.35422C20.586 6.16731 20.1668 5.76236 19.5031 5.1705C18.2456 4.08023 17.512 3.64413 16.4641 3.48838C15.8353 3.36377 15.1717 3.33262 14.6128 3.36377C14.3682 3.36377 13.7744 3.42608 13.2854 3.42608C11.8183 3.48838 11.3642 3.55068 10.9101 3.76873C10.4909 3.95563 10.2114 4.20484 9.58267 5.07705C8.95391 5.91811 8.6046 6.50997 6.82312 9.62501C5.91491 11.2448 5.04163 12.8958 3.9937 14.9829C3.22521 16.4781 3.01563 17.288 3.22521 17.7864C3.26014 17.8799 3.33 18.0356 3.36494 18.1602C3.50466 18.5652 3.71425 18.8767 4.20328 19.3128C4.55259 19.6243 5.70532 20.5588 6.12449 20.8703C6.54367 21.1818 6.92791 21.3064 7.41694 21.3376C7.55667 21.3376 7.66146 21.3376 7.66146 21.3687C7.66146 21.3999 7.5916 21.5556 7.48681 21.7425C6.89298 22.864 6.36901 23.8919 5.91491 24.8264C5.63546 25.4183 5.21628 26.2282 5.04163 26.6332C4.16835 28.4087 3.53959 29.904 3.15535 31.1188C3.05056 31.4615 3.01562 31.6172 3.01562 31.8976C3.01562 32.396 3.08549 32.614 3.36494 32.7386C3.46973 32.8009 3.53959 32.8009 3.67932 32.8009C3.8889 32.8009 4.23821 32.614 4.51766 32.396C4.62246 32.3337 4.93684 32.1156 5.25122 31.9287C5.87998 31.5549 6.61353 31.0565 7.48681 30.4024C8.39502 29.7171 8.56967 29.5925 9.68747 28.5956C10.2464 28.1284 10.9101 27.5677 11.1895 27.3496C13.0059 25.979 14.0888 25.0756 15.9751 23.4558C16.2196 23.2378 16.8134 22.7394 17.3024 22.3344C18.1408 21.6491 20.0271 19.9981 22.4024 17.8799C22.9962 17.3503 23.5551 16.8208 23.625 16.7273C23.7298 16.6027 23.7647 16.5404 23.7647 16.3535C23.7647 16.0732 23.6948 15.9174 23.3455 15.6371" fill="black"/>
</g>
<path d="M30.7148 13.363V10.8398H43.3599V13.363H38.7141V24.9198H35.5353V13.363H30.7498H30.7148Z" fill="#FF00FF"/>
<path d="M49.2635 25.1389C48.7396 25.1389 48.2156 25.0766 47.7266 24.9209C47.2026 24.7963 46.7485 24.5782 46.3293 24.2979C45.9102 24.0175 45.5958 23.6749 45.3513 23.2699C45.1067 22.8649 45.002 22.3977 45.002 21.837V14.8593H48.1807V21.4943C48.1807 21.9616 48.3553 22.3354 48.6697 22.6469C49.019 22.9584 49.5081 23.083 50.1718 23.083C50.8354 23.083 51.2896 22.9584 51.6738 22.6469C52.058 22.3665 52.2327 21.9304 52.2327 21.4009V14.8281H55.3765V24.9209H52.9662L52.6169 22.9272C52.4772 23.5191 52.2327 23.9864 51.8834 24.2979C51.5341 24.6094 51.1149 24.8274 50.6259 24.9209C50.1718 25.0455 49.7177 25.1078 49.2635 25.1078V25.1389Z" fill="#FF00FF"/>
<path d="M57.9619 24.9515V14.8588H61.0359V17.2574C61.2105 16.759 61.455 16.2917 61.8043 15.9179C62.1187 15.5441 62.5379 15.2326 63.0269 15.0145C63.516 14.7965 64.0399 14.6719 64.6338 14.6719C65.2276 14.6719 64.8433 14.6719 64.9132 14.6719C65.018 14.6719 65.0879 14.6719 65.1228 14.703V17.4131C65.0529 17.4131 64.9481 17.382 64.8783 17.382C64.8084 17.382 64.7036 17.382 64.6338 17.3508C64.005 17.3197 63.481 17.3508 63.0269 17.4131C62.5728 17.4754 62.2235 17.6312 61.9441 17.8181C61.6646 18.005 61.455 18.223 61.3502 18.5034C61.2454 18.7837 61.1756 19.0641 61.1756 19.4067V24.9204H57.9968L57.9619 24.9515Z" fill="#FF00FF"/>
<path d="M66.834 24.9519V14.8592H69.9778V16.2921C70.1524 16.0429 70.362 15.8248 70.6415 15.5756C70.9209 15.3576 71.3052 15.1707 71.7243 15.0149C72.1435 14.8592 72.6675 14.7969 73.2613 14.7969C73.8551 14.7969 74.5887 14.9215 75.1825 15.1707C75.7764 15.3887 76.2654 15.7937 76.6496 16.2921C77.0339 16.8217 77.2085 17.4758 77.2085 18.3169V24.9519H74.0298V18.6595C74.0298 18.0988 73.8551 17.6939 73.4709 17.4135C73.1216 17.1332 72.6675 17.0086 72.1435 17.0086C71.6196 17.0086 71.4449 17.0709 71.1305 17.1955C70.8161 17.2889 70.5367 17.4447 70.3271 17.6627C70.1175 17.8808 70.0127 18.1611 70.0127 18.5038V24.9519H66.834Z" fill="#FF00FF"/>
<path d="M83.0075 14.8583V24.951H79.9685V14.8583H83.0075ZM83.0425 10.8398V13.3942H79.9336V10.8398H83.0425Z" fill="#FF00FF"/>
<path d="M92.7531 16.8519H90.2381V22.2098C90.2381 22.459 90.3079 22.6459 90.3778 22.7705C90.4477 22.8951 90.5525 22.9574 90.6922 22.9886C90.8319 23.0197 91.0415 23.0509 91.286 23.0509H92.7881V24.7953C92.6483 24.8576 92.4038 24.8888 92.0894 24.9511C91.7751 25.0134 91.3559 25.0445 90.797 25.0445C89.8189 25.0445 89.0504 24.9199 88.4915 24.7018C87.9676 24.4838 87.5833 24.1411 87.3737 23.7362C87.1641 23.3312 87.0594 22.864 87.0594 22.3033V16.8208H85.208V14.8272H87.1642L87.9676 11.7744H90.2381V14.8272H92.7531V16.8208V16.8519Z" fill="#FF00FF"/>
<path d="M105.608 18.8777H98.6914V24.9521H95.5127V10.8721H98.6914V16.5103H105.608V10.8721H108.787V24.9521H105.608V18.8777Z" fill="#FF00FF"/>
<path d="M124.959 19.5626C124.959 20.7152 124.75 21.6808 124.331 22.5219C123.912 23.363 123.248 23.986 122.305 24.4532C121.397 24.9205 120.174 25.1385 118.637 25.1385C117.1 25.1385 115.877 24.9205 114.934 24.4532C114.026 23.986 113.327 23.3318 112.943 22.4907C112.524 21.6497 112.349 20.6529 112.349 19.4691V10.8405H115.598V19.6872C115.598 20.7463 115.877 21.5251 116.436 21.9923C116.995 22.4907 117.764 22.7088 118.672 22.7088C119.58 22.7088 119.79 22.6153 120.279 22.3973C120.768 22.1792 121.117 21.8366 121.362 21.4005C121.641 20.9644 121.781 20.3725 121.781 19.6561V10.8093H124.994V19.5315L124.959 19.5626Z" fill="#FF00FF"/>
<path d="M128.138 24.9521V10.8721H132.784L136.382 20.9337L140.05 10.8721H144.661V24.9521H141.412V14.174L137.605 24.9521H135.09L131.317 14.2052V24.9521H128.104H128.138Z" fill="#FF00FF"/>
<path d="M147.001 24.9521L152.66 10.8721H156.013L161.672 24.9521H158.493L157.201 21.6813H151.542L150.215 24.9521H147.036H147.001ZM152.206 19.1892H156.397L154.337 13.5822L152.206 19.1892Z" fill="#FF00FF"/>
<path d="M174.387 10.8398H177.566V24.9198H174.666L167.156 15.2009V24.9198H163.978V10.8398H167.121L174.352 20.1538V10.8398H174.387Z" fill="#FF00FF"/>
<path d="M29.877 13.363V10.8398H42.522V13.363H37.8762V24.9198H34.6974V13.363H29.9119H29.877Z" fill="#00FFFF"/>
<path d="M48.4608 25.1389C47.9368 25.1389 47.4129 25.0766 46.9238 24.9209C46.3999 24.7963 45.9458 24.5782 45.5266 24.2979C45.1074 24.0175 44.793 23.6749 44.5485 23.2699C44.304 22.8649 44.1992 22.3977 44.1992 21.837V14.8593H47.3779V21.4943C47.3779 21.9616 47.5526 22.3354 47.867 22.6469C48.2163 22.9584 48.7053 23.083 49.369 23.083C50.0327 23.083 50.4868 22.9584 50.8711 22.6469C51.2553 22.3665 51.43 21.9304 51.43 21.4009V14.8281H54.5738V24.9209H52.1635L51.8142 22.9272C51.6745 23.5191 51.43 23.9864 51.0806 24.2979C50.7313 24.6094 50.3122 24.8274 49.8231 24.9209C49.369 25.0455 48.9149 25.1078 48.4608 25.1078V25.1389Z" fill="#00FFFF"/>
<path d="M57.123 24.9515V14.8588H60.197V17.2574C60.3716 16.759 60.6162 16.2917 60.9655 15.9179C61.2798 15.5441 61.699 15.2326 62.1881 15.0145C62.6771 14.7965 63.2011 14.6719 63.7949 14.6719C64.3887 14.6719 64.0045 14.6719 64.0743 14.6719C64.1791 14.6719 64.249 14.6719 64.2839 14.703V17.4131C64.2141 17.4131 64.1093 17.382 64.0394 17.382C63.9695 17.382 63.8647 17.382 63.7949 17.3508C63.1661 17.3197 62.6422 17.3508 62.1881 17.4131C61.734 17.4754 61.3846 17.6312 61.1052 17.8181C60.8257 18.005 60.6162 18.223 60.5114 18.5034C60.4066 18.7837 60.3367 19.0641 60.3367 19.4067V24.9204H57.158L57.123 24.9515Z" fill="#00FFFF"/>
<path d="M65.9961 24.9519V14.8592H69.1399V16.2921C69.3145 16.0429 69.5241 15.8248 69.8036 15.5756C70.083 15.3576 70.4673 15.1707 70.8864 15.0149C71.3056 14.8592 71.8296 14.7969 72.4234 14.7969C73.0172 14.7969 73.7508 14.9215 74.3446 15.1707C74.9385 15.3887 75.4275 15.7937 75.8117 16.2921C76.196 16.8217 76.3706 17.4758 76.3706 18.3169V24.9519H73.1919V18.6595C73.1919 18.0988 73.0172 17.6939 72.633 17.4135C72.2837 17.1332 71.8296 17.0086 71.3056 17.0086C70.7817 17.0086 70.607 17.0709 70.2926 17.1955C69.9782 17.2889 69.6988 17.4447 69.4892 17.6627C69.2796 17.8808 69.1748 18.1611 69.1748 18.5038V24.9519H65.9961Z" fill="#00FFFF"/>
<path d="M82.1696 14.8583V24.951H79.1306V14.8583H82.1696ZM82.2046 10.8398V13.3942H79.0957V10.8398H82.2046Z" fill="#00FFFF"/>
<path d="M91.9494 16.8519H89.4344V22.2098C89.4344 22.459 89.5042 22.6459 89.5741 22.7705C89.644 22.8951 89.7488 22.9574 89.8885 22.9886C90.0282 23.0197 90.2378 23.0509 90.4823 23.0509H91.9843V24.7953C91.8446 24.8576 91.6001 24.8888 91.2857 24.9511C90.9713 25.0134 90.5522 25.0445 89.9933 25.0445C89.0152 25.0445 88.2467 24.9199 87.6878 24.7018C87.1639 24.4838 86.7796 24.1411 86.57 23.7362C86.3604 23.3312 86.2556 22.864 86.2556 22.3033V16.8208H84.4043V14.8272H86.3604L87.1639 11.7744H89.4344V14.8272H91.9494V16.8208V16.8519Z" fill="#00FFFF"/>
<path d="M104.769 18.8777H97.8526V24.9521H94.6738V10.8721H97.8526V16.5103H104.769V10.8721H107.948V24.9521H104.769V18.8777Z" fill="#00FFFF"/>
<path d="M124.156 19.5626C124.156 20.7152 123.946 21.6808 123.527 22.5219C123.108 23.363 122.444 23.986 121.501 24.4532C120.593 24.9205 119.37 25.1385 117.833 25.1385C116.297 25.1385 115.074 24.9205 114.131 24.4532C113.223 23.986 112.524 23.3318 112.14 22.4907C111.721 21.6497 111.546 20.6529 111.546 19.4691V10.8405H114.794V19.6872C114.794 20.7463 115.074 21.5251 115.633 21.9923C116.192 22.4907 116.96 22.7088 117.868 22.7088C118.777 22.7088 118.986 22.6153 119.475 22.3973C119.964 22.1792 120.314 21.8366 120.558 21.4005C120.838 20.9644 120.977 20.3725 120.977 19.6561V10.8093H124.191V19.5315L124.156 19.5626Z" fill="#00FFFF"/>
<path d="M127.301 24.9521V10.8721H131.946L135.544 20.9337L139.212 10.8721H143.823V24.9521H140.574V14.174L136.767 24.9521H134.252L130.479 14.2052V24.9521H127.266H127.301Z" fill="#00FFFF"/>
<path d="M146.162 24.9521L151.821 10.8721H155.174L160.833 24.9521H157.654L156.362 21.6813H150.703L149.376 24.9521H146.197H146.162ZM151.402 19.1892H155.594L153.533 13.5822L151.402 19.1892Z" fill="#00FFFF"/>
<path d="M173.583 10.8398H176.762V24.9198H173.863L166.353 15.2009V24.9198H163.174V10.8398H166.318L173.548 20.1538V10.8398H173.583Z" fill="#00FFFF"/>
<path d="M30.2969 13.363V10.8398H42.9419V13.363H38.2961V24.9198H35.1174V13.363H30.3318H30.2969Z" fill="white"/>
<path d="M48.8446 25.1389C48.3206 25.1389 47.7967 25.0766 47.3076 24.9209C46.7837 24.7963 46.3296 24.5782 45.9104 24.2979C45.4912 24.0175 45.1768 23.6749 44.9323 23.2699C44.6878 22.8649 44.583 22.3977 44.583 21.837V14.8593H47.7617V21.4943C47.7617 21.9616 47.9364 22.3354 48.2508 22.6469C48.6001 22.9584 49.0891 23.083 49.7528 23.083C50.4165 23.083 50.8706 22.9584 51.2549 22.6469C51.6391 22.3665 51.8137 21.9304 51.8137 21.4009V14.8281H54.9575V24.9209H52.5473L52.198 22.9272C52.0583 23.5191 51.8137 23.9864 51.4644 24.2979C51.1151 24.6094 50.696 24.8274 50.2069 24.9209C49.7528 25.0455 49.2987 25.1078 48.8446 25.1078V25.1389Z" fill="white"/>
<path d="M57.543 24.9515V14.8588H60.6169V17.2574C60.7916 16.759 61.0361 16.2917 61.3854 15.9179C61.6998 15.5441 62.1189 15.2326 62.608 15.0145C63.097 14.7965 63.621 14.6719 64.2148 14.6719C64.8086 14.6719 64.4244 14.6719 64.4943 14.6719C64.5991 14.6719 64.6689 14.6719 64.7038 14.703V17.4131C64.634 17.4131 64.5292 17.382 64.4593 17.382C64.3895 17.382 64.2847 17.382 64.2148 17.3508C63.586 17.3197 63.0621 17.3508 62.608 17.4131C62.1539 17.4754 61.8046 17.6312 61.5251 17.8181C61.2457 18.005 61.0361 18.223 60.9313 18.5034C60.8265 18.7837 60.7566 19.0641 60.7566 19.4067V24.9204H57.5779L57.543 24.9515Z" fill="white"/>
<path d="M66.415 24.9519V14.8592H69.5588V16.2921C69.7335 16.0429 69.9431 15.8248 70.2225 15.5756C70.502 15.3576 70.8862 15.1707 71.3054 15.0149C71.7246 14.8592 72.2485 14.7969 72.8424 14.7969C73.4362 14.7969 74.1697 14.9215 74.7636 15.1707C75.3574 15.3887 75.8464 15.7937 76.2307 16.2921C76.6149 16.8217 76.7896 17.4758 76.7896 18.3169V24.9519H73.6108V18.6595C73.6108 18.0988 73.4362 17.6939 73.0519 17.4135C72.7026 17.1332 72.2485 17.0086 71.7246 17.0086C71.2006 17.0086 71.0259 17.0709 70.7116 17.1955C70.3972 17.2889 70.1177 17.4447 69.9081 17.6627C69.6986 17.8808 69.5938 18.1611 69.5938 18.5038V24.9519H66.415Z" fill="white"/>
<path d="M82.5876 14.8583V24.951H79.5486V14.8583H82.5876ZM82.6225 10.8398V13.3942H79.5137V10.8398H82.6225Z" fill="white"/>
<path d="M92.3342 16.8519H89.8191V22.2098C89.8191 22.459 89.889 22.6459 89.9589 22.7705C90.0287 22.8951 90.1335 22.9574 90.2732 22.9886C90.413 23.0197 90.6226 23.0509 90.8671 23.0509H92.3691V24.7953C92.2294 24.8576 91.9849 24.8888 91.6705 24.9511C91.3561 25.0134 90.9369 25.0445 90.378 25.0445C89.4 25.0445 88.6315 24.9199 88.0726 24.7018C87.5486 24.4838 87.1644 24.1411 86.9548 23.7362C86.7452 23.3312 86.6404 22.864 86.6404 22.3033V16.8208H84.7891V14.8272H86.7452L87.5486 11.7744H89.8191V14.8272H92.3342V16.8208V16.8519Z" fill="white"/>
<path d="M105.189 18.8777H98.2725V24.9521H95.0938V10.8721H98.2725V16.5103H105.189V10.8721H108.368V24.9521H105.189V18.8777Z" fill="white"/>
<path d="M124.541 19.5626C124.541 20.7152 124.331 21.6808 123.912 22.5219C123.493 23.363 122.829 23.986 121.886 24.4532C120.978 24.9205 119.755 25.1385 118.218 25.1385C116.681 25.1385 115.459 24.9205 114.516 24.4532C113.607 23.986 112.909 23.3318 112.524 22.4907C112.105 21.6497 111.931 20.6529 111.931 19.4691V10.8405H115.179V19.6872C115.179 20.7463 115.459 21.5251 116.018 21.9923C116.577 22.4907 117.345 22.7088 118.253 22.7088C119.161 22.7088 119.371 22.6153 119.86 22.3973C120.349 22.1792 120.698 21.8366 120.943 21.4005C121.222 20.9644 121.362 20.3725 121.362 19.6561V10.8093H124.576V19.5315L124.541 19.5626Z" fill="white"/>
<path d="M127.719 24.9521V10.8721H132.364L135.962 20.9337L139.63 10.8721H144.241V24.9521H140.992V14.174L137.185 24.9521H134.67L130.897 14.2052V24.9521H127.684H127.719Z" fill="white"/>
<path d="M146.582 24.9521L152.241 10.8721H155.594L161.253 24.9521H158.074L156.782 21.6813H151.123L149.796 24.9521H146.617H146.582ZM151.822 19.1892H156.013L153.952 13.5822L151.822 19.1892Z" fill="white"/>
<path d="M173.968 10.8398H177.147V24.9198H174.248L166.737 15.2009V24.9198H163.559V10.8398H166.702L173.933 20.1538V10.8398H173.968Z" fill="white"/>
</svg>
